<?xml version="1.0" encoding="UTF-8" standalone="no"?>
<svg width="566px" height="346px" viewBox="0 0 566 346" version="1.1" xmlns="http://www.w3.org/2000/svg" xmlns:xlink="http://www.w3.org/1999/xlink" xmlns:sketch="http://www.bohemiancoding.com/sketch/ns">
    <!-- Generator: Sketch 3.5.1 (25234) - http://www.bohemiancoding.com/sketch -->
    <title>Untitled</title>
    <desc>Created with Sketch.</desc>
    <defs></defs>
    <g id="Page-1" stroke="none" stroke-width="1" fill="none" fill-rule="evenodd" sketch:type="MSPage">
        <g id="architecture_diagram" sketch:type="MSLayerGroup" transform="translate(1.000000, 1.000000)">
            <path d="M222.457,187.094 L364.189,187.094 L364.189,328.826 L222.457,328.826 L222.457,187.094 Z" id="Fill-1" fill="#FFFFFF" sketch:type="MSShapeGroup"></path>
            <path d="M222.457,187.094 L364.189,187.094 L364.189,328.826 L222.457,328.826 L222.457,187.094 Z" id="Stroke-2" stroke="#000000" stroke-linecap="round" stroke-linejoin="round" sketch:type="MSShapeGroup"></path>
            <path d="M486.079,195.598 L545.607,195.598 L545.607,255.126 L486.079,255.126 L486.079,195.598 Z" id="Fill-3" fill="#FFFFFF" sketch:type="MSShapeGroup"></path>
            <path d="M486.079,195.598 L545.607,195.598 L545.607,255.126 L486.079,255.126 L486.079,195.598 Z M492.031,195.598 L492.031,255.126 L492.031,195.598 Z M539.654,255.126 L539.654,195.598 L539.654,255.126 Z" id="Stroke-4" stroke="#000000" stroke-linecap="round" stroke-linejoin="round" sketch:type="MSShapeGroup"></path>
            <text id="EV3" sketch:type="MSTextLayer" font-family="Helvetica Neue" font-size="16" font-weight="normal" fill="#000000">
                <tspan x="501.6185" y="227.498307">EV3</tspan>
            </text>
            <path d="M486.079,260.795 L545.607,260.795 L545.607,320.323 L486.079,320.323 L486.079,260.795 Z" id="Fill-5" fill="#FFFFFF" sketch:type="MSShapeGroup"></path>
            <path d="M486.079,260.795 L545.607,260.795 L545.607,320.323 L486.079,320.323 L486.079,260.795 Z M492.031,260.795 L492.031,320.323 L492.031,260.795 Z M539.654,320.323 L539.654,260.795 L539.654,320.323 Z" id="Stroke-6" stroke="#000000" stroke-linecap="round" stroke-linejoin="round" sketch:type="MSShapeGroup"></path>
            <text id="EV3" sketch:type="MSTextLayer" font-family="Helvetica Neue" font-size="16" font-weight="normal" fill="#000000">
                <tspan x="501.6185" y="292.695207">EV3</tspan>
            </text>
            <path d="M456.697,315.279 C446.739,299.879 446.739,280.905 456.697,265.505 M465.164,310.914 C456.952,298.215 456.952,282.569 465.164,269.87 M472.061,307.359 C465.272,296.86 465.272,283.924 472.061,273.425 M478.627,303.974 C473.192,295.569 473.192,285.215 478.627,276.81 M456.697,250.082 C446.739,234.682 446.739,215.709 456.697,200.309 M465.164,245.717 C456.952,233.018 456.952,217.372 465.164,204.673 M472.061,242.162 C465.272,231.663 465.272,218.728 472.061,208.229 M478.627,238.777 C473.192,230.373 473.192,220.018 478.627,211.613 M413.465,223.976 C428.584,247.357 428.584,276.164 413.465,299.546 M400.61,230.603 C413.077,249.883 413.077,273.638 400.61,292.919 M390.138,236 C400.446,251.941 400.446,271.581 390.138,287.521 M380.169,241.14 C388.42,253.9 388.42,269.621 380.169,282.382" id="Stroke-7" stroke="#000000" stroke-linecap="round" stroke-linejoin="round" sketch:type="MSShapeGroup"></path>
            <path d="M242.299,0.008 L347.181,0.008 L347.181,62.37 L242.299,62.37 L242.299,0.008 Z" id="Fill-8" fill="#FFFFFF" sketch:type="MSShapeGroup"></path>
            <path d="M242.299,0.008 L347.181,0.008 L347.181,62.37 L242.299,62.37 L242.299,0.008 Z" id="Stroke-9" stroke="#000000" stroke-linecap="round" stroke-linejoin="round" sketch:type="MSShapeGroup"></path>
            <text id="(-Remote-)-" sketch:type="MSTextLayer" font-family="Helvetica Neue" font-size="16" font-weight="normal" fill="#000000">
                <tspan x="258.1401" y="24.1011074">( Remote ) </tspan>
            </text>
            <text id="Server" sketch:type="MSTextLayer" font-family="Helvetica Neue" font-size="16" font-weight="normal" fill="#000000">
                <tspan x="271.6361" y="42.5491074">Server</tspan>
            </text>
            <path d="M89.228,243.787 L177.102,243.787 L177.102,328.826 L89.228,328.826 L89.228,243.787 Z" id="Fill-11" fill="#FFFFFF" sketch:type="MSShapeGroup"></path>
            <path d="M89.228,243.787 L177.102,243.787 L177.102,328.826 L89.228,328.826 L89.228,243.787 Z" id="Stroke-12" stroke="#000000" stroke-linecap="round" stroke-linejoin="round" sketch:type="MSShapeGroup"></path>
            <text id="(-Remote-)" sketch:type="MSTextLayer" font-family="Helvetica Neue" font-size="16" font-weight="normal" fill="#000000">
                <tspan x="96.5654" y="279.219207">( Remote )</tspan>
            </text>
            <text id="WebClient" sketch:type="MSTextLayer" font-family="Helvetica Neue" font-size="16" font-weight="normal" letter-spacing="-0.912" fill="#000000">
                <tspan x="96.5814" y="297.667207">W</tspan>
                <tspan x="109.5734" y="297.667207">ebClient</tspan>
            </text>
            <path d="M133.165,233.887 L133.165,90.717 L269.921,90.717 L269.921,72.27" id="Stroke-13" stroke="#000000" stroke-linecap="round" stroke-linejoin="round" sketch:type="MSShapeGroup"></path>
            <path d="M269.921,64.27 L266.921,72.27 L272.921,72.27 L269.921,64.27 Z M133.165,241.887 L136.165,233.887 L130.165,233.887 L133.165,241.887 Z" id="Stroke-14" stroke="#000000" sketch:type="MSShapeGroup"></path>
            <path d="M293.534,177.195 L294.401,72.27" id="Stroke-15" stroke="#000000" stroke-linecap="round" stroke-linejoin="round" sketch:type="MSShapeGroup"></path>
            <path d="M294.467,64.27 L291.401,72.245 L297.401,72.295 L294.467,64.27 Z M293.467,185.195 L296.533,177.22 L290.534,177.17 L293.467,185.195 Z" id="Stroke-16" stroke="#000000" sketch:type="MSShapeGroup"></path>
            <path d="M222.457,187.094 L364.189,187.094 L364.189,218.275 L222.457,218.275 L222.457,187.094 Z" id="Fill-17" fill="#FFFFFF" sketch:type="MSShapeGroup"></path>
            <path d="M222.457,187.094 L364.189,187.094 L364.189,218.275 L222.457,218.275 L222.457,187.094 Z" id="Stroke-18" stroke="#000000" stroke-linecap="round" stroke-linejoin="round" sketch:type="MSShapeGroup"></path>
            <text id="Controller" sketch:type="MSTextLayer" font-family="Helvetica Neue" font-size="16" font-weight="normal" fill="#000000">
                <tspan x="258.3629" y="204.821107">Cont</tspan>
                <tspan x="293.0349" y="204.821107" letter-spacing="-0.288">r</tspan>
                <tspan x="297.7869" y="204.821107">oller</tspan>
            </text>
            <path d="M307.992,243.787 L352.354,243.787 C357.325,243.787 361.354,247.817 361.354,252.787 L361.354,265.968 C361.354,270.939 357.325,274.969 352.354,274.969 L307.992,274.969 C303.022,274.969 298.992,270.939 298.992,265.968 L298.992,252.787 C298.992,247.817 303.022,243.787 307.992,243.787 L307.992,243.787 Z" id="Fill-19" fill="#FFFFFF" sketch:type="MSShapeGroup"></path>
            <path d="M307.992,243.787 L352.354,243.787 C357.325,243.787 361.354,247.817 361.354,252.787 L361.354,265.968 C361.354,270.939 357.325,274.968 352.354,274.968 L307.992,274.968 C303.022,274.968 298.992,270.939 298.992,265.968 L298.992,252.787 C298.992,247.817 303.022,243.787 307.992,243.787 L307.992,243.787 Z" id="Stroke-20" stroke="#000000" stroke-linecap="round" stroke-linejoin="round" sketch:type="MSShapeGroup"></path>
            <text id="PyREPL" sketch:type="MSTextLayer" font-family="Helvetica Neue" font-size="14" font-weight="normal" fill="#000000">
                <tspan x="304.6372" y="260.871994">PyREPL</tspan>
            </text>
            <path d="M307.992,286.307 L352.354,286.307 C357.325,286.307 361.354,290.337 361.354,295.307 L361.354,308.488 C361.354,313.459 357.325,317.488 352.354,317.488 L307.992,317.488 C303.022,317.488 298.992,313.459 298.992,308.488 L298.992,295.307 C298.992,290.337 303.022,286.307 307.992,286.307 L307.992,286.307 Z" id="Fill-21" fill="#FFFFFF" sketch:type="MSShapeGroup"></path>
            <path d="M307.992,286.307 L352.354,286.307 C357.325,286.307 361.354,290.336 361.354,295.307 L361.354,308.488 C361.354,313.459 357.325,317.488 352.354,317.488 L307.992,317.488 C303.022,317.488 298.992,313.459 298.992,308.488 L298.992,295.307 C298.992,290.336 303.022,286.307 307.992,286.307 L307.992,286.307 Z" id="Stroke-22" stroke="#000000" stroke-linecap="round" stroke-linejoin="round" sketch:type="MSShapeGroup"></path>
            <text id="PyREPL" sketch:type="MSTextLayer" font-family="Helvetica Neue" font-size="14" font-weight="normal" fill="#000000">
                <tspan x="304.6372" y="303.391694">PyREPL</tspan>
            </text>
            <path d="M290.488,224.776 L290.488,260.795 L292.492,260.795" id="Stroke-23" stroke="#000000" stroke-linecap="round" stroke-linejoin="round" sketch:type="MSShapeGroup"></path>
            <path d="M293.371,262.917 C292.199,261.745 292.199,259.845 293.371,258.674 C294.542,257.502 296.442,257.502 297.613,258.674 C298.785,259.845 298.785,261.745 297.613,262.917 C296.442,264.088 294.542,264.088 293.371,262.917 M292.609,223.897 C291.438,225.068 289.538,225.068 288.367,223.897 C287.195,222.725 287.195,220.826 288.367,219.654 C289.538,218.483 291.438,218.483 292.609,219.654 C293.781,220.826 293.781,222.725 292.609,223.897" id="Stroke-24" stroke="#000000" sketch:type="MSShapeGroup"></path>
            <path d="M279.15,224.776 L279.15,301.898 L292.492,301.898" id="Stroke-25" stroke="#000000" stroke-linecap="round" stroke-linejoin="round" sketch:type="MSShapeGroup"></path>
            <path d="M293.371,304.019 C292.199,302.847 292.199,300.948 293.371,299.776 C294.542,298.605 296.442,298.605 297.613,299.776 C298.785,300.948 298.785,302.847 297.613,304.019 C296.442,305.191 294.542,305.191 293.371,304.019 M281.271,223.897 C280.099,225.068 278.2,225.068 277.028,223.897 C275.857,222.725 275.857,220.826 277.028,219.654 C278.2,218.483 280.099,218.483 281.271,219.654 C282.443,220.826 282.443,222.725 281.271,223.897" id="Stroke-26" stroke="#000000" sketch:type="MSShapeGroup"></path>
            <path d="M9.409,133.236 L71.724,133.236 C76.695,133.236 80.724,137.266 80.724,142.236 L80.724,204.551 C80.724,209.522 76.695,213.551 71.724,213.551 L9.409,213.551 C4.439,213.551 0.409,209.522 0.409,204.551 L0.409,142.236 C0.409,137.266 4.439,133.236 9.409,133.236 L9.409,133.236 Z" id="Fill-27" fill="#FFFFFF" sketch:type="MSShapeGroup"></path>
            <path d="M9.409,133.236 L71.724,133.236 C76.695,133.236 80.724,137.266 80.724,142.236 L80.724,204.551 C80.724,209.522 76.695,213.551 71.724,213.551 L9.409,213.551 C4.439,213.551 0.409,209.522 0.409,204.551 L0.409,142.236 C0.409,137.266 4.439,133.236 9.409,133.236 L9.409,133.236 Z" id="Stroke-28" stroke="#000000" stroke-linecap="round" stroke-linejoin="round" sketch:type="MSShapeGroup"></path>
            <text id="Mongo" sketch:type="MSTextLayer" font-family="Helvetica Neue" font-size="16" font-weight="normal" fill="#000000">
                <tspan x="15.3749" y="175.529807">Mongo</tspan>
            </text>
            <path d="M40.866,223.451 L41.039,252.359 L41.039,286.307 L79.328,286.307" id="Stroke-30" stroke="#000000" stroke-linecap="round" stroke-linejoin="round" sketch:type="MSShapeGroup"></path>
            <path d="M87.328,286.307 L79.328,283.307 L79.328,289.307 L87.328,286.307 Z" id="Fill-31" fill="#000000" sketch:type="MSShapeGroup"></path>
            <path d="M87.328,286.307 L79.328,283.307 L79.328,289.307 L87.328,286.307 Z" id="Stroke-32" stroke="#000000" sketch:type="MSShapeGroup"></path>
            <path d="M40.819,215.451 L37.866,223.469 L43.866,223.433 L40.819,215.451 Z" id="Fill-33" fill="#000000" sketch:type="MSShapeGroup"></path>
            <path d="M40.819,215.451 L37.866,223.469 L43.866,223.433 L40.819,215.451 Z" id="Stroke-34" stroke="#000000" sketch:type="MSShapeGroup"></path>
            <text id="Host" sketch:type="MSTextLayer" font-family="Helvetica Neue" font-size="16" font-weight="normal" fill="#000000">
                <tspan x="236.7498" y="261.380607">Host</tspan>
            </text>
            <text id="(-OSX-)" sketch:type="MSTextLayer" font-family="Helvetica Neue" font-size="16" font-weight="normal" fill="#000000">
                <tspan x="228.8938" y="279.828607">( OSX )</tspan>
            </text>
        </g>
    </g>
</svg>